<?xml version="1.0" encoding="UTF-8" standalone="no"?><!-- Generator: Gravit.io --><svg xmlns="http://www.w3.org/2000/svg" xmlns:xlink="http://www.w3.org/1999/xlink" style="isolation:isolate" viewBox="0 0 512 512" width="512pt" height="512pt"><defs><clipPath id="_clipPath_HBEjfsY5O13tDKkpwu1je5pLjZs4qsQ9"><rect width="512" height="512"/></clipPath></defs><g clip-path="url(#_clipPath_HBEjfsY5O13tDKkpwu1je5pLjZs4qsQ9)"><path d=" M 501.927 238.11 L 419.704 197.001 L 501.927 155.887 C 516.634 148.536 516.65 127.473 501.927 120.11 L 265.926 2.109 C 260.293 -0.703 253.668 -0.703 248.035 2.109 L 12.034 120.11 C -2.673 127.465 -2.689 148.528 12.034 155.887 L 94.257 197.001 L 12.034 238.11 C -2.673 245.466 -2.689 266.525 12.034 273.888 L 94.257 315.001 L 12.034 356.111 C -2.673 363.466 -2.689 384.525 12.034 391.888 L 248.035 509.889 C 253.656 512.698 260.281 512.709 265.926 509.889 L 501.927 391.888 C 516.634 384.533 516.65 363.474 501.927 356.111 L 419.704 315.001 L 501.927 273.888 C 516.634 266.536 516.65 245.474 501.927 238.11 L 501.927 238.11 Z  M 256.98 42.36 L 448.259 138.001 L 256.98 233.638 L 65.702 138.001 L 256.98 42.36 Z  M 448.259 374.002 L 256.98 469.639 L 65.702 374.002 L 138.98 337.361 L 248.035 391.888 C 253.66 394.697 260.281 394.709 265.926 391.888 L 374.981 337.361 L 448.259 374.002 Z  M 256.98 351.638 L 65.702 256.001 L 138.98 219.36 L 248.035 273.888 C 253.66 276.697 260.281 276.708 265.926 273.888 L 374.981 219.36 L 448.259 256.001 L 256.98 351.638 Z " fill="rgb(0,0,0)"/></g></svg>