<?xml version="1.0" encoding="UTF-8" standalone="no"?><!-- Generator: Gravit.io --><svg xmlns="http://www.w3.org/2000/svg" xmlns:xlink="http://www.w3.org/1999/xlink" style="isolation:isolate" viewBox="0 0 554 512.002" width="554pt" height="512.002pt"><defs><clipPath id="_clipPath_XhbtjbLRCDudGL5mTlngEUHVLbFPPb3v"><rect width="554" height="512.002"/></clipPath></defs><g clip-path="url(#_clipPath_XhbtjbLRCDudGL5mTlngEUHVLbFPPb3v)"><path d=" M 273.352 246.633 C 239.477 246.633 210.141 234.477 186.164 210.508 C 162.187 186.535 150.031 157.199 150.031 123.313 C 150.031 89.434 162.187 60.098 186.16 36.125 C 210.133 12.152 239.465 0 273.352 0 C 307.23 0 336.566 12.152 360.543 36.121 C 384.52 60.102 396.672 89.438 396.672 123.313 C 396.672 157.199 384.52 186.531 360.547 210.504 C 336.574 234.48 307.234 246.633 273.352 246.633 L 273.352 246.633 Z  M 273.25 206.63 C 267.56 206.65 261.88 206.12 256.28 205.06 C 251.17 204.08 246.17 202.59 241.36 200.61 C 236.55 198.6 231.95 196.12 227.64 193.2 C 222.91 189.96 218.49 186.29 214.44 182.22 C 210.38 178.18 206.7 173.76 203.47 169.03 C 200.54 164.72 198.06 160.12 196.06 155.31 C 194.07 150.5 192.58 145.5 191.6 140.39 C 190.54 134.76 190.01 129.04 190.03 123.31 C 190.01 117.59 190.54 111.87 191.6 106.24 C 192.58 101.13 194.07 96.13 196.06 91.32 C 198.06 86.51 200.54 81.91 203.47 77.61 C 206.7 72.87 210.38 68.45 214.44 64.41 C 218.48 60.34 222.9 56.67 227.64 53.43 C 231.95 50.51 236.54 48.03 241.35 46.03 C 246.16 44.04 251.16 42.55 256.27 41.57 C 261.9 40.51 267.62 39.98 273.35 40 C 279.08 39.98 284.8 40.51 290.42 41.57 C 295.54 42.55 300.54 44.04 305.35 46.03 C 310.16 48.03 314.75 50.51 319.06 53.43 C 323.8 56.67 328.22 60.34 332.26 64.41 C 336.33 68.45 340 72.87 343.24 77.6 C 346.16 81.91 348.64 86.51 350.65 91.32 C 352.63 96.13 354.12 101.13 355.1 106.24 C 356.17 111.87 356.69 117.59 356.67 123.31 C 356.69 129.04 356.17 134.76 355.1 140.39 C 354.12 145.5 352.63 150.5 350.65 155.32 C 348.65 160.12 346.16 164.72 343.24 169.02 C 340.01 173.76 336.33 178.18 332.26 182.22 C 328.22 186.29 323.8 189.97 319.07 193.2 C 314.76 196.12 310.16 198.61 305.36 200.61 C 300.54 202.59 295.54 204.09 290.43 205.06 C 284.83 206.12 279.15 206.65 273.45 206.63 C 273.42 206.63 273.38 206.63 273.35 206.63 L 273.35 206.63 L 273.25 206.63 Z " fill-rule="evenodd" fill="rgb(0,0,0)"/><path d=" M 489.129 393.703 C 489.813 403.453 490.16 413.629 490.164 423.945 C 490.164 450.684 481.668 472.324 464.91 488.27 C 448.359 504.02 426.473 512.004 399.848 512.004 L 153.316 512.004 C 126.691 512.004 104.797 504.016 88.25 488.27 C 71.496 472.313 63 450.676 63 423.949 C 63 413.68 63.344 403.512 64.023 393.715 C 64.715 383.715 66.113 372.828 68.172 361.352 C 70.25 349.773 72.926 338.832 76.125 328.828 C 79.438 318.48 83.938 308.273 89.496 298.488 C 95.262 288.336 102.047 279.496 109.652 272.215 C 117.617 264.594 127.363 258.473 138.621 254.016 C 149.844 249.57 162.281 247.316 175.594 247.316 C 180.82 247.316 185.879 249.461 195.629 255.816 C 201.727 259.789 208.758 264.32 216.527 269.285 C 223.227 273.559 232.313 277.562 243.523 281.184 C 254.484 284.727 265.598 286.523 276.57 286.523 C 287.543 286.523 298.66 284.727 309.609 281.184 C 320.832 277.559 329.918 273.555 336.625 269.281 C 344.469 264.27 351.496 259.738 357.504 255.82 C 367.266 249.465 372.32 247.32 377.547 247.32 C 390.855 247.32 403.297 249.57 414.523 254.012 C 425.789 258.477 435.531 264.598 443.488 272.211 C 451.098 279.488 457.879 288.332 463.652 298.488 C 469.215 308.273 473.715 318.484 477.023 328.824 C 480.227 338.828 482.902 349.773 484.98 361.352 C 487.039 372.844 488.438 383.727 489.129 393.703 L 489.129 393.703 Z  M 382.29 287.47 C 384.81 287.63 387.31 287.94 389.78 288.38 C 393.24 289 396.62 289.95 399.88 291.24 C 403.07 292.49 406.14 294.03 409.04 295.85 C 411.48 297.37 413.76 299.14 415.84 301.12 C 418.24 303.43 420.46 305.91 422.48 308.56 C 424.83 311.64 426.97 314.88 428.88 318.25 C 433.01 325.48 436.38 333.11 438.93 341.03 C 440.29 345.3 441.5 349.61 442.56 353.96 C 443.73 358.75 444.74 363.57 445.61 368.41 C 446.49 373.33 447.26 378.27 447.9 383.23 C 448.47 387.64 448.91 392.06 449.23 396.49 C 449.86 405.65 450.17 414.83 450.16 424.01 C 450.18 428.12 449.85 432.21 449.15 436.26 C 448.6 439.46 447.73 442.59 446.56 445.61 C 445.55 448.18 444.27 450.64 442.73 452.93 C 441.17 455.24 439.37 457.37 437.35 459.28 C 435.25 461.28 432.95 463.06 430.49 464.59 C 427.97 466.14 425.3 467.43 422.52 468.44 C 419.29 469.61 415.95 470.47 412.55 471.02 C 408.39 471.69 404.19 472.02 399.98 472 C 399.93 472 399.89 472 399.85 472 L 153.32 472 C 153.27 472 153.23 472 153.19 472 C 148.98 472.02 144.77 471.69 140.61 471.02 C 137.21 470.47 133.87 469.61 130.64 468.44 C 127.86 467.42 125.19 466.13 122.67 464.58 C 120.21 463.06 117.91 461.29 115.82 459.29 C 113.8 457.37 111.99 455.24 110.43 452.93 C 108.9 450.63 107.61 448.18 106.61 445.61 C 105.43 442.58 104.56 439.45 104.01 436.25 C 103.32 432.21 102.98 428.12 103 424.01 C 102.99 414.83 103.3 405.65 103.93 396.49 C 104.24 392.05 104.68 387.63 105.25 383.22 C 105.89 378.27 106.66 373.33 107.54 368.42 C 108.41 363.57 109.43 358.75 110.59 353.96 C 111.65 349.61 112.86 345.3 114.22 341.03 C 116.78 333.11 120.15 325.47 124.28 318.24 C 126.18 314.87 128.31 311.64 130.66 308.57 C 132.69 305.92 134.91 303.43 137.31 301.12 C 139.39 299.14 141.67 297.37 144.1 295.85 C 147.01 294.03 150.07 292.49 153.26 291.24 C 156.53 289.95 159.91 288.99 163.37 288.37 C 165.84 287.93 168.34 287.63 170.84 287.46 C 171.81 288.05 172.76 288.65 173.71 289.27 C 180.8 293.89 187.91 298.48 195.05 303.03 C 197.79 304.77 200.61 306.4 203.49 307.9 C 206.38 309.41 209.33 310.82 212.32 312.13 C 218.52 314.83 224.85 317.22 231.29 319.27 C 238.59 321.63 246.05 323.43 253.62 324.66 C 261.21 325.9 268.88 326.52 276.57 326.52 C 284.26 326.52 291.93 325.9 299.52 324.66 C 307.09 323.43 314.55 321.63 321.85 319.27 C 328.29 317.21 334.62 314.83 340.82 312.13 C 343.81 310.82 346.76 309.41 349.65 307.9 C 352.53 306.4 355.35 304.77 358.1 303.03 C 365.23 298.48 372.33 293.9 379.42 289.28 C 380.37 288.66 381.33 288.05 382.29 287.47 Z " fill-rule="evenodd" fill="rgb(0,0,0)"/></g></svg>